<?xml version="1.0" encoding="UTF-8"?>
<!DOCTYPE svg PUBLIC "-//W3C//DTD SVG 1.1//EN" "http://www.w3.org/Graphics/SVG/1.1/DTD/svg11.dtd">
<svg xmlns="http://www.w3.org/2000/svg" version="1.1" width="300px" height="300px" style="shape-rendering:geometricPrecision; text-rendering:geometricPrecision; image-rendering:optimizeQuality; fill-rule:evenodd; clip-rule:evenodd" xmlns:xlink="http://www.w3.org/1999/xlink">
<g><path style="opacity:1" fill="#f3f3f3" d="M -0.5,-0.5 C 99.5,-0.5 199.5,-0.5 299.5,-0.5C 299.5,99.5 299.5,199.5 299.5,299.5C 199.5,299.5 99.5,299.5 -0.5,299.5C -0.5,199.5 -0.5,99.5 -0.5,-0.5 Z"/></g>
<g><path style="opacity:1" fill="#bfbfbf" d="M 152.5,77.5 C 152.5,92.1667 152.5,106.833 152.5,121.5C 176.167,121.5 199.833,121.5 223.5,121.5C 225.144,122.316 226.31,123.65 227,125.5C 227.667,157.833 227.667,190.167 227,222.5C 226.5,223 226,223.5 225.5,224C 175.583,225.657 125.583,225.99 75.5,225C 74.6667,224.167 73.8333,223.333 73,222.5C 72.3333,173.833 72.3333,125.167 73,76.5C 73.8333,75.6667 74.6667,74.8333 75.5,74C 100.167,73.3333 124.833,73.3333 149.5,74C 150.71,75.0391 151.71,76.2058 152.5,77.5 Z"/></g>
<g><path style="opacity:1" fill="#e1e1e1" d="M 142.5,215.5 C 142.5,171.833 142.5,128.167 142.5,84.5C 122.833,84.5 103.167,84.5 83.5,84.5C 83.5,127.833 83.5,171.167 83.5,214.5C 86.8333,214.5 90.1667,214.5 93.5,214.5C 93.1706,199.324 93.5039,184.324 94.5,169.5C 94.5,184.833 94.5,200.167 94.5,215.5C 90.5,215.5 86.5,215.5 82.5,215.5C 82.5,171.5 82.5,127.5 82.5,83.5C 102.833,83.5 123.167,83.5 143.5,83.5C 143.832,127.67 143.499,171.67 142.5,215.5 Z"/></g>
<g><path style="opacity:1" fill="#f3f3f3" d="M 142.5,215.5 C 138.5,215.5 134.5,215.5 130.5,215.5C 130.667,200.163 130.5,184.83 130,169.5C 129.167,168.667 128.333,167.833 127.5,167C 117.167,166.333 106.833,166.333 96.5,167C 95.6195,167.708 94.9528,168.542 94.5,169.5C 93.5039,184.324 93.1706,199.324 93.5,214.5C 90.1667,214.5 86.8333,214.5 83.5,214.5C 83.5,171.167 83.5,127.833 83.5,84.5C 103.167,84.5 122.833,84.5 142.5,84.5C 142.5,128.167 142.5,171.833 142.5,215.5 Z"/></g>
<g><path style="opacity:1" fill="#c1c1c1" d="M 92.5,100.5 C 99.2973,101.107 100.964,104.274 97.5,110C 89.4483,110.124 87.7817,106.957 92.5,100.5 Z"/></g>
<g><path style="opacity:1" fill="#c2c2c2" d="M 110.5,100.5 C 117.297,101.107 118.964,104.274 115.5,110C 107.03,110.531 105.364,107.364 110.5,100.5 Z"/></g>
<g><path style="opacity:1" fill="#c1c1c1" d="M 128.5,100.5 C 135.297,101.107 136.964,104.274 133.5,110C 125.03,110.531 123.364,107.364 128.5,100.5 Z"/></g>
<g><path style="opacity:1" fill="#e2e2e2" d="M 152.5,77.5 C 153.496,91.6569 153.829,105.99 153.5,120.5C 177.006,120.169 200.339,120.502 223.5,121.5C 199.833,121.5 176.167,121.5 152.5,121.5C 152.5,106.833 152.5,92.1667 152.5,77.5 Z"/></g>
<g><path style="opacity:1" fill="#c1c1c1" d="M 91.5,121.5 C 99.8773,121.274 101.544,124.441 96.5,131C 89.478,130.791 87.8114,127.624 91.5,121.5 Z"/></g>
<g><path style="opacity:1" fill="#c2c2c2" d="M 109.5,121.5 C 117.219,120.87 119.219,123.87 115.5,130.5C 109.695,131.865 107.195,129.532 108,123.5C 108.717,122.956 109.217,122.289 109.5,121.5 Z"/></g>
<g><path style="opacity:1" fill="#c1c1c1" d="M 127.5,121.5 C 135.877,121.274 137.544,124.441 132.5,131C 125.474,130.759 123.807,127.593 127.5,121.5 Z"/></g>
<g><path style="opacity:1" fill="#ebebeb" d="M 152.5,132.5 C 152.5,132.167 152.5,131.833 152.5,131.5C 173.5,131.5 194.5,131.5 215.5,131.5C 215.5,159.5 215.5,187.5 215.5,215.5C 210.833,215.5 206.167,215.5 201.5,215.5C 201.5,203.5 201.5,191.5 201.5,179.5C 202.495,190.988 202.828,202.655 202.5,214.5C 206.5,214.5 210.5,214.5 214.5,214.5C 214.5,187.167 214.5,159.833 214.5,132.5C 193.833,132.5 173.167,132.5 152.5,132.5 Z"/></g>
<g><path style="opacity:1" fill="#f3f3f3" d="M 152.5,132.5 C 173.167,132.5 193.833,132.5 214.5,132.5C 214.5,159.833 214.5,187.167 214.5,214.5C 210.5,214.5 206.5,214.5 202.5,214.5C 202.828,202.655 202.495,190.988 201.5,179.5C 201.047,178.542 200.381,177.708 199.5,177C 189.167,176.333 178.833,176.333 168.5,177C 167.619,177.708 166.953,178.542 166.5,179.5C 165.505,190.988 165.172,202.655 165.5,214.5C 161.167,214.5 156.833,214.5 152.5,214.5C 152.5,187.167 152.5,159.833 152.5,132.5 Z"/></g>
<g><path style="opacity:1" fill="#c1c1c1" d="M 92.5,141.5 C 99.6275,141.706 101.294,144.873 97.5,151C 89.4079,151.09 87.7412,147.923 92.5,141.5 Z"/></g>
<g><path style="opacity:1" fill="#c1c1c1" d="M 110.5,141.5 C 117.628,141.706 119.294,144.873 115.5,151C 107.408,151.09 105.741,147.923 110.5,141.5 Z"/></g>
<g><path style="opacity:1" fill="#c0c0c0" d="M 128.5,141.5 C 136.045,142.062 137.378,145.229 132.5,151C 127.667,151.5 125.5,149.333 126,144.5C 126.698,143.309 127.531,142.309 128.5,141.5 Z"/></g>
<g><path style="opacity:1" fill="#f3f4f3" d="M 105.5,177.5 C 110.167,177.5 114.833,177.5 119.5,177.5C 119.5,189.833 119.5,202.167 119.5,214.5C 114.833,214.5 110.167,214.5 105.5,214.5C 105.5,202.167 105.5,189.833 105.5,177.5 Z"/></g>
<g><path style="opacity:1" fill="#eaeaea" d="M 105.5,177.5 C 110.305,176.513 115.305,176.179 120.5,176.5C 120.5,189.5 120.5,202.5 120.5,215.5C 115.305,215.821 110.305,215.487 105.5,214.5C 110.167,214.5 114.833,214.5 119.5,214.5C 119.5,202.167 119.5,189.833 119.5,177.5C 114.833,177.5 110.167,177.5 105.5,177.5 Z"/></g>
<g><path style="opacity:1" fill="#e0e0e0" d="M 152.5,131.5 C 152.5,131.833 152.5,132.167 152.5,132.5C 152.5,159.833 152.5,187.167 152.5,214.5C 156.833,214.5 161.167,214.5 165.5,214.5C 165.172,202.655 165.505,190.988 166.5,179.5C 166.5,191.5 166.5,203.5 166.5,215.5C 161.5,215.5 156.5,215.5 151.5,215.5C 151.169,187.328 151.502,159.328 152.5,131.5 Z"/></g>
<g><path style="opacity:1" fill="#e2e2e2" d="M 176.5,186.5 C 181.833,186.5 187.167,186.5 192.5,186.5C 192.5,196.167 192.5,205.833 192.5,215.5C 187.167,215.5 181.833,215.5 176.5,215.5C 176.5,205.833 176.5,196.167 176.5,186.5 Z"/></g>
<g><path style="opacity:1" fill="#f3f3f3" d="M 177.5,187.5 C 182.167,187.5 186.833,187.5 191.5,187.5C 191.5,196.5 191.5,205.5 191.5,214.5C 186.833,214.5 182.167,214.5 177.5,214.5C 177.5,205.5 177.5,196.5 177.5,187.5 Z"/></g>
</svg>
